{
	"patcher" : 	{
		"fileversion" : 1,
		"rect" : [ 161.0, 98.0, 960.0, 748.0 ],
		"bglocked" : 0,
		"defrect" : [ 161.0, 98.0, 960.0, 748.0 ],
		"openrect" : [ 0.0, 0.0, 0.0, 0.0 ],
		"openinpresentation" : 0,
		"default_fontsize" : 12.0,
		"default_fontface" : 0,
		"default_fontname" : "Arial",
		"gridonopen" : 0,
		"gridsize" : [ 15.0, 15.0 ],
		"gridsnaponopen" : 0,
		"toolbarvisible" : 1,
		"boxanimatetime" : 200,
		"imprint" : 0,
		"metadata" : [  ],
		"boxes" : [ 			{
				"box" : 				{
					"maxclass" : "comment",
					"text" : "You",
					"id" : "obj-49",
					"presentation_rect" : [ 40.0, 117.0, 43.0, 17.0 ],
					"patching_rect" : [ 859.0, 219.0, 56.0, 17.0 ],
					"numinlets" : 1,
					"presentation" : 1,
					"fontname" : "Arial",
					"numoutlets" : 0,
					"fontsize" : 9.0
				}

			}
, 			{
				"box" : 				{
					"maxclass" : "comment",
					"text" : "Opponent",
					"id" : "obj-48",
					"presentation_rect" : [ 40.0, 209.0, 65.0, 17.0 ],
					"patching_rect" : [ 453.0, 231.0, 56.0, 17.0 ],
					"numinlets" : 1,
					"presentation" : 1,
					"fontname" : "Arial",
					"numoutlets" : 0,
					"fontsize" : 9.0
				}

			}
, 			{
				"box" : 				{
					"maxclass" : "newobj",
					"text" : "stripnote",
					"id" : "obj-32",
					"patching_rect" : [ 859.0, 408.0, 57.0, 20.0 ],
					"numinlets" : 2,
					"fontname" : "Arial",
					"numoutlets" : 2,
					"outlettype" : [ "int", "int" ],
					"fontsize" : 12.0
				}

			}
, 			{
				"box" : 				{
					"maxclass" : "flonum",
					"id" : "obj-39",
					"patching_rect" : [ 859.0, 483.0, 50.0, 20.0 ],
					"numinlets" : 1,
					"fontname" : "Arial",
					"numoutlets" : 2,
					"outlettype" : [ "float", "bang" ],
					"fontsize" : 12.0
				}

			}
, 			{
				"box" : 				{
					"maxclass" : "newobj",
					"text" : "mtof",
					"id" : "obj-40",
					"patching_rect" : [ 859.0, 438.0, 34.0, 20.0 ],
					"numinlets" : 1,
					"fontname" : "Arial",
					"numoutlets" : 1,
					"outlettype" : [ "" ],
					"fontsize" : 12.0
				}

			}
, 			{
				"box" : 				{
					"maxclass" : "kslider",
					"id" : "obj-43",
					"presentation_rect" : [ 38.0, 140.0, 336.0, 53.0 ],
					"patching_rect" : [ 859.0, 243.0, 336.0, 53.0 ],
					"numinlets" : 2,
					"presentation" : 1,
					"numoutlets" : 2,
					"outlettype" : [ "int", "int" ]
				}

			}
, 			{
				"box" : 				{
					"maxclass" : "newobj",
					"text" : "makenote 127 10000",
					"id" : "obj-44",
					"patching_rect" : [ 959.0, 423.0, 119.0, 20.0 ],
					"numinlets" : 3,
					"fontname" : "Arial",
					"numoutlets" : 2,
					"outlettype" : [ "int", "int" ],
					"fontsize" : 11.595187
				}

			}
, 			{
				"box" : 				{
					"maxclass" : "number",
					"id" : "obj-45",
					"patching_rect" : [ 1135.0, 442.0, 50.0, 20.0 ],
					"numinlets" : 1,
					"fontname" : "Arial",
					"numoutlets" : 2,
					"minimum" : 1,
					"outlettype" : [ "int", "bang" ],
					"maximum" : 16,
					"fontsize" : 11.595187
				}

			}
, 			{
				"box" : 				{
					"maxclass" : "slider",
					"id" : "obj-46",
					"min" : 1.0,
					"patching_rect" : [ 1135.0, 389.0, 20.0, 40.0 ],
					"numinlets" : 1,
					"numoutlets" : 1,
					"outlettype" : [ "" ],
					"size" : 16.0
				}

			}
, 			{
				"box" : 				{
					"maxclass" : "newobj",
					"text" : "noteout 1",
					"id" : "obj-47",
					"patching_rect" : [ 959.0, 474.0, 195.0, 20.0 ],
					"numinlets" : 3,
					"fontname" : "Arial",
					"numoutlets" : 0,
					"fontsize" : 11.595187
				}

			}
, 			{
				"box" : 				{
					"maxclass" : "newobj",
					"text" : "prepend /max/opponent",
					"id" : "obj-16",
					"patching_rect" : [ 603.0, 560.0, 137.0, 20.0 ],
					"numinlets" : 1,
					"fontname" : "Arial",
					"numoutlets" : 1,
					"outlettype" : [ "" ],
					"fontsize" : 12.0
				}

			}
, 			{
				"box" : 				{
					"maxclass" : "newobj",
					"text" : "print",
					"id" : "obj-26",
					"patching_rect" : [ 345.0, 690.0, 34.0, 20.0 ],
					"numinlets" : 1,
					"fontname" : "Arial",
					"numoutlets" : 0,
					"fontsize" : 12.0
				}

			}
, 			{
				"box" : 				{
					"maxclass" : "newobj",
					"text" : "route text",
					"id" : "obj-25",
					"patching_rect" : [ 765.0, 573.0, 61.0, 20.0 ],
					"numinlets" : 1,
					"fontname" : "Arial",
					"numoutlets" : 2,
					"outlettype" : [ "", "" ],
					"fontsize" : 12.0
				}

			}
, 			{
				"box" : 				{
					"maxclass" : "textedit",
					"text" : "110.",
					"id" : "obj-7",
					"patching_rect" : [ 765.0, 542.0, 160.0, 22.0 ],
					"numinlets" : 1,
					"fontname" : "Arial",
					"numoutlets" : 4,
					"outlettype" : [ "", "int", "", "" ],
					"fontsize" : 12.0
				}

			}
, 			{
				"box" : 				{
					"maxclass" : "message",
					"text" : "host $1",
					"id" : "obj-4",
					"patching_rect" : [ 765.0, 600.0, 50.0, 18.0 ],
					"numinlets" : 2,
					"fontname" : "Arial",
					"numoutlets" : 1,
					"outlettype" : [ "" ],
					"fontsize" : 12.0
				}

			}
, 			{
				"box" : 				{
					"maxclass" : "newobj",
					"text" : "stripnote",
					"id" : "obj-3",
					"patching_rect" : [ 450.0, 420.0, 57.0, 20.0 ],
					"numinlets" : 2,
					"fontname" : "Arial",
					"numoutlets" : 2,
					"outlettype" : [ "int", "int" ],
					"fontsize" : 12.0
				}

			}
, 			{
				"box" : 				{
					"maxclass" : "flonum",
					"id" : "obj-82",
					"patching_rect" : [ 450.0, 495.0, 50.0, 20.0 ],
					"numinlets" : 1,
					"fontname" : "Arial",
					"numoutlets" : 2,
					"outlettype" : [ "float", "bang" ],
					"fontsize" : 12.0
				}

			}
, 			{
				"box" : 				{
					"maxclass" : "newobj",
					"text" : "mtof",
					"id" : "obj-78",
					"patching_rect" : [ 450.0, 450.0, 34.0, 20.0 ],
					"numinlets" : 1,
					"fontname" : "Arial",
					"numoutlets" : 1,
					"outlettype" : [ "" ],
					"fontsize" : 12.0
				}

			}
, 			{
				"box" : 				{
					"maxclass" : "kslider",
					"id" : "obj-77",
					"presentation_rect" : [ 38.0, 230.0, 336.0, 53.0 ],
					"patching_rect" : [ 450.0, 255.0, 336.0, 53.0 ],
					"numinlets" : 2,
					"presentation" : 1,
					"numoutlets" : 2,
					"outlettype" : [ "int", "int" ]
				}

			}
, 			{
				"box" : 				{
					"maxclass" : "newobj",
					"text" : "midiin",
					"id" : "obj-72",
					"patching_rect" : [ 507.0, 17.0, 42.0, 20.0 ],
					"numinlets" : 1,
					"fontname" : "Arial",
					"numoutlets" : 1,
					"outlettype" : [ "int" ],
					"fontsize" : 12.0
				}

			}
, 			{
				"box" : 				{
					"maxclass" : "newobj",
					"text" : "unpack",
					"id" : "obj-33",
					"patching_rect" : [ 559.0, 100.0, 56.0, 20.0 ],
					"numinlets" : 1,
					"fontname" : "Arial",
					"numoutlets" : 2,
					"outlettype" : [ "int", "int" ],
					"fontsize" : 11.595187
				}

			}
, 			{
				"box" : 				{
					"maxclass" : "number",
					"id" : "obj-34",
					"patching_rect" : [ 559.0, 122.0, 36.0, 20.0 ],
					"numinlets" : 1,
					"fontname" : "Arial",
					"numoutlets" : 2,
					"outlettype" : [ "int", "bang" ],
					"fontsize" : 11.595187
				}

			}
, 			{
				"box" : 				{
					"maxclass" : "button",
					"id" : "obj-13",
					"patching_rect" : [ 559.0, 147.0, 20.0, 20.0 ],
					"numinlets" : 1,
					"numoutlets" : 1,
					"outlettype" : [ "bang" ]
				}

			}
, 			{
				"box" : 				{
					"maxclass" : "number",
					"id" : "obj-14",
					"patching_rect" : [ 596.0, 122.0, 36.0, 20.0 ],
					"numinlets" : 1,
					"fontname" : "Arial",
					"numoutlets" : 2,
					"outlettype" : [ "int", "bang" ],
					"fontsize" : 11.595187
				}

			}
, 			{
				"box" : 				{
					"maxclass" : "number",
					"id" : "obj-15",
					"patching_rect" : [ 670.166626, 122.0, 36.0, 20.0 ],
					"numinlets" : 1,
					"fontname" : "Arial",
					"numoutlets" : 2,
					"outlettype" : [ "int", "bang" ],
					"fontsize" : 11.595187
				}

			}
, 			{
				"box" : 				{
					"maxclass" : "number",
					"id" : "obj-35",
					"patching_rect" : [ 633.166687, 122.0, 36.0, 20.0 ],
					"numinlets" : 1,
					"fontname" : "Arial",
					"numoutlets" : 2,
					"outlettype" : [ "int", "bang" ],
					"fontsize" : 11.595187
				}

			}
, 			{
				"box" : 				{
					"maxclass" : "newobj",
					"text" : "unpack",
					"id" : "obj-17",
					"patching_rect" : [ 633.166687, 100.0, 56.0, 20.0 ],
					"numinlets" : 1,
					"fontname" : "Arial",
					"numoutlets" : 2,
					"outlettype" : [ "int", "int" ],
					"fontsize" : 11.595187
				}

			}
, 			{
				"box" : 				{
					"maxclass" : "number",
					"id" : "obj-18",
					"patching_rect" : [ 744.333313, 122.0, 36.0, 20.0 ],
					"numinlets" : 1,
					"fontname" : "Arial",
					"numoutlets" : 2,
					"outlettype" : [ "int", "bang" ],
					"fontsize" : 11.595187
				}

			}
, 			{
				"box" : 				{
					"maxclass" : "number",
					"id" : "obj-19",
					"patching_rect" : [ 707.333313, 122.0, 36.0, 20.0 ],
					"numinlets" : 1,
					"fontname" : "Arial",
					"numoutlets" : 2,
					"outlettype" : [ "int", "bang" ],
					"fontsize" : 11.595187
				}

			}
, 			{
				"box" : 				{
					"maxclass" : "newobj",
					"text" : "unpack",
					"id" : "obj-36",
					"patching_rect" : [ 707.333313, 100.0, 56.0, 20.0 ],
					"numinlets" : 1,
					"fontname" : "Arial",
					"numoutlets" : 2,
					"outlettype" : [ "int", "int" ],
					"fontsize" : 11.595187
				}

			}
, 			{
				"box" : 				{
					"maxclass" : "number",
					"id" : "obj-37",
					"patching_rect" : [ 781.5, 100.0, 50.0, 20.0 ],
					"numinlets" : 1,
					"fontname" : "Arial",
					"numoutlets" : 2,
					"outlettype" : [ "int", "bang" ],
					"fontsize" : 11.595187
				}

			}
, 			{
				"box" : 				{
					"maxclass" : "button",
					"id" : "obj-22",
					"patching_rect" : [ 781.5, 129.0, 20.0, 20.0 ],
					"numinlets" : 1,
					"numoutlets" : 1,
					"outlettype" : [ "bang" ]
				}

			}
, 			{
				"box" : 				{
					"maxclass" : "newobj",
					"text" : "midiparse",
					"id" : "obj-38",
					"patching_rect" : [ 559.0, 74.0, 464.0, 20.0 ],
					"numinlets" : 1,
					"fontname" : "Arial",
					"numoutlets" : 7,
					"outlettype" : [ "", "", "", "int", "int", "int", "int" ],
					"fontsize" : 11.595187
				}

			}
, 			{
				"box" : 				{
					"maxclass" : "number",
					"id" : "obj-56",
					"patching_rect" : [ 929.833374, 100.0, 50.0, 20.0 ],
					"numinlets" : 1,
					"fontname" : "Arial",
					"numoutlets" : 2,
					"outlettype" : [ "int", "bang" ],
					"fontsize" : 11.595187
				}

			}
, 			{
				"box" : 				{
					"maxclass" : "button",
					"id" : "obj-57",
					"patching_rect" : [ 929.833374, 129.0, 20.0, 20.0 ],
					"numinlets" : 1,
					"numoutlets" : 1,
					"outlettype" : [ "bang" ]
				}

			}
, 			{
				"box" : 				{
					"maxclass" : "button",
					"id" : "obj-58",
					"patching_rect" : [ 855.666626, 129.0, 20.0, 20.0 ],
					"numinlets" : 1,
					"numoutlets" : 1,
					"outlettype" : [ "bang" ]
				}

			}
, 			{
				"box" : 				{
					"maxclass" : "number",
					"id" : "obj-60",
					"patching_rect" : [ 855.666626, 100.0, 50.0, 20.0 ],
					"numinlets" : 1,
					"fontname" : "Arial",
					"numoutlets" : 2,
					"outlettype" : [ "int", "bang" ],
					"fontsize" : 11.595187
				}

			}
, 			{
				"box" : 				{
					"maxclass" : "button",
					"id" : "obj-61",
					"patching_rect" : [ 633.166687, 147.0, 20.0, 20.0 ],
					"numinlets" : 1,
					"numoutlets" : 1,
					"outlettype" : [ "bang" ]
				}

			}
, 			{
				"box" : 				{
					"maxclass" : "button",
					"id" : "obj-62",
					"patching_rect" : [ 707.333313, 147.0, 20.0, 20.0 ],
					"numinlets" : 1,
					"numoutlets" : 1,
					"outlettype" : [ "bang" ]
				}

			}
, 			{
				"box" : 				{
					"maxclass" : "comment",
					"text" : "Poly Pressure",
					"linecount" : 2,
					"id" : "obj-63",
					"patching_rect" : [ 636.0, 167.0, 55.0, 33.0 ],
					"numinlets" : 1,
					"fontname" : "Arial",
					"numoutlets" : 0,
					"fontsize" : 11.595187
				}

			}
, 			{
				"box" : 				{
					"maxclass" : "comment",
					"text" : "Note On/Off",
					"linecount" : 2,
					"id" : "obj-64",
					"patching_rect" : [ 575.0, 167.0, 43.0, 33.0 ],
					"numinlets" : 1,
					"fontname" : "Arial",
					"numoutlets" : 0,
					"fontsize" : 11.595187
				}

			}
, 			{
				"box" : 				{
					"maxclass" : "comment",
					"text" : "Control Change",
					"linecount" : 2,
					"id" : "obj-65",
					"patching_rect" : [ 715.0, 167.0, 49.0, 33.0 ],
					"numinlets" : 1,
					"fontname" : "Arial",
					"numoutlets" : 0,
					"fontsize" : 11.595187
				}

			}
, 			{
				"box" : 				{
					"maxclass" : "comment",
					"text" : "After Touch",
					"linecount" : 2,
					"id" : "obj-68",
					"patching_rect" : [ 861.0, 154.0, 41.0, 33.0 ],
					"numinlets" : 1,
					"fontname" : "Arial",
					"numoutlets" : 0,
					"fontsize" : 11.595187
				}

			}
, 			{
				"box" : 				{
					"maxclass" : "comment",
					"text" : "Pgm Change",
					"linecount" : 2,
					"id" : "obj-69",
					"patching_rect" : [ 787.0, 154.0, 49.0, 33.0 ],
					"numinlets" : 1,
					"fontname" : "Arial",
					"numoutlets" : 0,
					"fontsize" : 11.595187
				}

			}
, 			{
				"box" : 				{
					"maxclass" : "newobj",
					"text" : "makenote 127 10000",
					"id" : "obj-79",
					"patching_rect" : [ 550.0, 435.0, 119.0, 20.0 ],
					"numinlets" : 3,
					"fontname" : "Arial",
					"numoutlets" : 2,
					"outlettype" : [ "int", "int" ],
					"fontsize" : 11.595187
				}

			}
, 			{
				"box" : 				{
					"maxclass" : "number",
					"id" : "obj-80",
					"patching_rect" : [ 726.0, 454.0, 50.0, 20.0 ],
					"numinlets" : 1,
					"fontname" : "Arial",
					"numoutlets" : 2,
					"minimum" : 1,
					"outlettype" : [ "int", "bang" ],
					"maximum" : 16,
					"fontsize" : 11.595187
				}

			}
, 			{
				"box" : 				{
					"maxclass" : "slider",
					"id" : "obj-23",
					"min" : 1.0,
					"patching_rect" : [ 726.0, 401.0, 20.0, 40.0 ],
					"numinlets" : 1,
					"numoutlets" : 1,
					"outlettype" : [ "" ],
					"size" : 16.0
				}

			}
, 			{
				"box" : 				{
					"maxclass" : "newobj",
					"text" : "noteout 1",
					"id" : "obj-81",
					"patching_rect" : [ 550.0, 486.0, 195.0, 20.0 ],
					"numinlets" : 3,
					"fontname" : "Arial",
					"numoutlets" : 0,
					"fontsize" : 11.595187
				}

			}
, 			{
				"box" : 				{
					"maxclass" : "message",
					"text" : "startwindow",
					"id" : "obj-21",
					"patching_rect" : [ 189.0, 293.0, 72.0, 18.0 ],
					"numinlets" : 2,
					"fontname" : "Arial",
					"numoutlets" : 1,
					"outlettype" : [ "" ],
					"fontsize" : 11.595187
				}

			}
, 			{
				"box" : 				{
					"maxclass" : "message",
					"text" : "stop",
					"id" : "obj-20",
					"patching_rect" : [ 189.0, 269.0, 32.5, 18.0 ],
					"numinlets" : 2,
					"fontname" : "Arial",
					"numoutlets" : 1,
					"outlettype" : [ "" ],
					"fontsize" : 11.595187
				}

			}
, 			{
				"box" : 				{
					"maxclass" : "newobj",
					"text" : "dac~",
					"id" : "obj-24",
					"patching_rect" : [ 231.0, 268.0, 36.0, 20.0 ],
					"numinlets" : 2,
					"fontname" : "Arial",
					"numoutlets" : 0,
					"fontsize" : 11.595187
				}

			}
, 			{
				"box" : 				{
					"maxclass" : "newobj",
					"text" : "udpreceive 8989",
					"id" : "obj-42",
					"patching_rect" : [ 300.0, 600.0, 99.0, 20.0 ],
					"numinlets" : 1,
					"fontname" : "Arial",
					"numoutlets" : 1,
					"outlettype" : [ "" ],
					"fontsize" : 12.0
				}

			}
, 			{
				"box" : 				{
					"maxclass" : "message",
					"text" : "vibrato 50 0.5",
					"id" : "obj-9",
					"patching_rect" : [ 6.0, 321.0, 83.0, 18.0 ],
					"numinlets" : 2,
					"fontname" : "Arial",
					"numoutlets" : 1,
					"outlettype" : [ "" ],
					"fontsize" : 12.0
				}

			}
, 			{
				"box" : 				{
					"maxclass" : "message",
					"text" : "amp-range 70 100",
					"id" : "obj-8",
					"patching_rect" : [ -1.0, 343.0, 109.0, 18.0 ],
					"numinlets" : 2,
					"fontname" : "Arial",
					"numoutlets" : 1,
					"outlettype" : [ "" ],
					"fontsize" : 12.0
				}

			}
, 			{
				"box" : 				{
					"maxclass" : "gain~",
					"id" : "obj-6",
					"presentation_rect" : [ 254.0, 10.0, 22.0, 65.0 ],
					"patching_rect" : [ 158.0, 94.0, 22.0, 122.0 ],
					"numinlets" : 2,
					"presentation" : 1,
					"numoutlets" : 2,
					"orientation" : 2,
					"outlettype" : [ "signal", "int" ]
				}

			}
, 			{
				"box" : 				{
					"maxclass" : "newobj",
					"text" : "prepend /max/opponent",
					"id" : "obj-11",
					"patching_rect" : [ 420.0, 600.0, 137.0, 20.0 ],
					"numinlets" : 1,
					"fontname" : "Arial",
					"numoutlets" : 1,
					"outlettype" : [ "" ],
					"fontsize" : 12.0
				}

			}
, 			{
				"box" : 				{
					"maxclass" : "newobj",
					"text" : "udpsend 192.168.0.199 9090",
					"id" : "obj-12",
					"patching_rect" : [ 765.0, 634.0, 167.0, 20.0 ],
					"numinlets" : 1,
					"fontname" : "Arial",
					"numoutlets" : 0,
					"fontsize" : 12.0
				}

			}
, 			{
				"box" : 				{
					"maxclass" : "comment",
					"text" : "Volume",
					"id" : "obj-10",
					"presentation_rect" : [ 13.0, 56.0, 43.0, 17.0 ],
					"patching_rect" : [ 40.0, 169.0, 47.0, 17.0 ],
					"numinlets" : 1,
					"presentation" : 1,
					"fontname" : "Arial",
					"numoutlets" : 0,
					"fontsize" : 9.0
				}

			}
, 			{
				"box" : 				{
					"maxclass" : "newobj",
					"text" : "prepend /max/you",
					"id" : "obj-5",
					"patching_rect" : [ 185.0, 599.0, 107.0, 20.0 ],
					"numinlets" : 1,
					"fontname" : "Arial",
					"numoutlets" : 1,
					"outlettype" : [ "" ],
					"fontsize" : 12.0
				}

			}
, 			{
				"box" : 				{
					"maxclass" : "newobj",
					"text" : "loadbang",
					"id" : "obj-2",
					"patching_rect" : [ 15.0, 124.0, 60.0, 20.0 ],
					"numinlets" : 1,
					"fontname" : "Arial",
					"numoutlets" : 1,
					"outlettype" : [ "bang" ],
					"fontsize" : 12.0
				}

			}
, 			{
				"box" : 				{
					"maxclass" : "newobj",
					"text" : "udpsend 127.0.0.1 7800",
					"id" : "obj-59",
					"patching_rect" : [ 185.0, 675.0, 140.0, 20.0 ],
					"numinlets" : 1,
					"fontname" : "Arial",
					"numoutlets" : 0,
					"fontsize" : 12.0
				}

			}
, 			{
				"box" : 				{
					"maxclass" : "message",
					"text" : "reattack 100 8",
					"id" : "obj-1",
					"patching_rect" : [ 16.0, 365.0, 87.0, 18.0 ],
					"numinlets" : 2,
					"fontname" : "Arial",
					"numoutlets" : 1,
					"outlettype" : [ "" ],
					"fontsize" : 12.0
				}

			}
, 			{
				"box" : 				{
					"maxclass" : "message",
					"text" : "11.6",
					"id" : "obj-27",
					"patching_rect" : [ 210.0, 346.0, 30.0, 15.0 ],
					"hidden" : 1,
					"numinlets" : 2,
					"fontname" : "Arial",
					"numoutlets" : 1,
					"outlettype" : [ "" ],
					"fontsize" : 9.0
				}

			}
, 			{
				"box" : 				{
					"maxclass" : "flonum",
					"id" : "obj-28",
					"triscale" : 0.9,
					"bgcolor" : [ 0.866667, 0.866667, 0.866667, 1.0 ],
					"patching_rect" : [ 210.0, 364.0, 35.0, 17.0 ],
					"htextcolor" : [ 0.870588, 0.870588, 0.870588, 1.0 ],
					"numinlets" : 1,
					"fontname" : "Arial",
					"numoutlets" : 2,
					"outlettype" : [ "float", "bang" ],
					"fontsize" : 9.0
				}

			}
, 			{
				"box" : 				{
					"maxclass" : "message",
					"text" : "512",
					"id" : "obj-29",
					"patching_rect" : [ 173.0, 345.0, 26.0, 15.0 ],
					"hidden" : 1,
					"numinlets" : 2,
					"fontname" : "Arial",
					"numoutlets" : 1,
					"outlettype" : [ "" ],
					"fontsize" : 9.0
				}

			}
, 			{
				"box" : 				{
					"maxclass" : "number",
					"id" : "obj-30",
					"triscale" : 0.9,
					"bgcolor" : [ 0.866667, 0.866667, 0.866667, 1.0 ],
					"patching_rect" : [ 173.0, 364.0, 35.0, 17.0 ],
					"htextcolor" : [ 0.870588, 0.870588, 0.870588, 1.0 ],
					"numinlets" : 1,
					"fontname" : "Arial",
					"numoutlets" : 2,
					"minimum" : 0,
					"outlettype" : [ "int", "bang" ],
					"maximum" : 8188,
					"fontsize" : 9.0
				}

			}
, 			{
				"box" : 				{
					"maxclass" : "comment",
					"text" : "Hop size",
					"id" : "obj-31",
					"patching_rect" : [ 171.0, 350.0, 58.0, 17.0 ],
					"numinlets" : 1,
					"fontname" : "Arial",
					"numoutlets" : 0,
					"fontsize" : 9.0
				}

			}
, 			{
				"box" : 				{
					"maxclass" : "button",
					"id" : "obj-66",
					"patching_rect" : [ 141.0, 418.0, 23.0, 23.0 ],
					"numinlets" : 1,
					"numoutlets" : 1,
					"outlettype" : [ "bang" ]
				}

			}
, 			{
				"box" : 				{
					"maxclass" : "multislider",
					"id" : "obj-73",
					"contdata" : 1,
					"patching_rect" : [ 83.0, 524.0, 50.0, 118.0 ],
					"numinlets" : 1,
					"setminmax" : [ 45.0, 80.0 ],
					"numoutlets" : 2,
					"peakcolor" : [ 0.498039, 0.498039, 0.498039, 1.0 ],
					"outlettype" : [ "", "" ]
				}

			}
, 			{
				"box" : 				{
					"maxclass" : "flonum",
					"id" : "obj-74",
					"triscale" : 0.9,
					"bgcolor" : [ 0.866667, 0.866667, 0.866667, 1.0 ],
					"patching_rect" : [ 135.0, 505.0, 49.0, 17.0 ],
					"htextcolor" : [ 0.870588, 0.870588, 0.870588, 1.0 ],
					"numinlets" : 1,
					"fontname" : "Arial",
					"numoutlets" : 2,
					"outlettype" : [ "float", "bang" ],
					"fontsize" : 9.0
				}

			}
, 			{
				"box" : 				{
					"maxclass" : "flonum",
					"id" : "obj-75",
					"triscale" : 0.9,
					"bgcolor" : [ 0.866667, 0.866667, 0.866667, 1.0 ],
					"patching_rect" : [ 83.0, 504.0, 49.0, 17.0 ],
					"htextcolor" : [ 0.870588, 0.870588, 0.870588, 1.0 ],
					"numinlets" : 1,
					"fontname" : "Arial",
					"numoutlets" : 2,
					"outlettype" : [ "float", "bang" ],
					"fontsize" : 9.0
				}

			}
, 			{
				"box" : 				{
					"maxclass" : "newobj",
					"text" : "unpack 0. 0.",
					"id" : "obj-76",
					"patching_rect" : [ 83.0, 482.0, 62.0, 17.0 ],
					"numinlets" : 1,
					"fontname" : "Arial",
					"numoutlets" : 2,
					"outlettype" : [ "float", "float" ],
					"fontsize" : 9.0
				}

			}
, 			{
				"box" : 				{
					"maxclass" : "flonum",
					"id" : "obj-93",
					"triscale" : 0.9,
					"bgcolor" : [ 0.866667, 0.866667, 0.866667, 1.0 ],
					"patching_rect" : [ 291.0, 416.0, 49.0, 17.0 ],
					"htextcolor" : [ 0.870588, 0.870588, 0.870588, 1.0 ],
					"numinlets" : 1,
					"fontname" : "Arial",
					"numoutlets" : 2,
					"outlettype" : [ "float", "bang" ],
					"fontsize" : 9.0
				}

			}
, 			{
				"box" : 				{
					"maxclass" : "button",
					"id" : "obj-97",
					"patching_rect" : [ 365.0, 406.0, 15.0, 15.0 ],
					"hidden" : 1,
					"numinlets" : 1,
					"numoutlets" : 1,
					"outlettype" : [ "bang" ]
				}

			}
, 			{
				"box" : 				{
					"maxclass" : "number",
					"id" : "obj-98",
					"triscale" : 0.9,
					"bgcolor" : [ 0.866667, 0.866667, 0.866667, 1.0 ],
					"patching_rect" : [ 357.0, 485.0, 35.0, 17.0 ],
					"htextcolor" : [ 0.870588, 0.870588, 0.870588, 1.0 ],
					"numinlets" : 1,
					"fontname" : "Arial",
					"numoutlets" : 2,
					"outlettype" : [ "int", "bang" ],
					"fontsize" : 9.0
				}

			}
, 			{
				"box" : 				{
					"maxclass" : "newobj",
					"text" : "timer",
					"id" : "obj-99",
					"patching_rect" : [ 357.0, 438.0, 33.0, 17.0 ],
					"hidden" : 1,
					"numinlets" : 2,
					"fontname" : "Arial",
					"numoutlets" : 2,
					"outlettype" : [ "float", "" ],
					"fontsize" : 9.0
				}

			}
, 			{
				"box" : 				{
					"maxclass" : "newobj",
					"text" : "adc~ 1",
					"id" : "obj-103",
					"patching_rect" : [ 90.0, 41.0, 38.0, 17.0 ],
					"numinlets" : 1,
					"fontname" : "Arial",
					"numoutlets" : 1,
					"outlettype" : [ "signal" ],
					"fontsize" : 9.0
				}

			}
, 			{
				"box" : 				{
					"maxclass" : "gain~",
					"id" : "obj-106",
					"presentation_rect" : [ 65.0, 10.0, 22.0, 65.0 ],
					"patching_rect" : [ 90.0, 88.0, 22.0, 122.0 ],
					"numinlets" : 2,
					"presentation" : 1,
					"numoutlets" : 2,
					"orientation" : 2,
					"outlettype" : [ "signal", "int" ]
				}

			}
, 			{
				"box" : 				{
					"maxclass" : "newobj",
					"text" : "pitch~ 2048 512 4096 blackman70 0 1 10 3",
					"id" : "obj-107",
					"patching_rect" : [ 141.0, 393.0, 219.0, 17.0 ],
					"numinlets" : 1,
					"fontname" : "Arial",
					"numoutlets" : 5,
					"outlettype" : [ "bang", "list", "list", "float", "list" ],
					"color" : [ 0.156863, 0.8, 0.54902, 1.0 ],
					"fontsize" : 9.0
				}

			}
, 			{
				"box" : 				{
					"maxclass" : "comment",
					"text" : "Update rate (ms)",
					"linecount" : 2,
					"id" : "obj-108",
					"patching_rect" : [ 369.0, 457.0, 50.0, 27.0 ],
					"numinlets" : 1,
					"fontname" : "Arial",
					"numoutlets" : 0,
					"fontsize" : 9.0
				}

			}
, 			{
				"box" : 				{
					"maxclass" : "comment",
					"text" : "Amplitude (dB)",
					"id" : "obj-112",
					"patching_rect" : [ 285.0, 435.0, 72.0, 17.0 ],
					"numinlets" : 1,
					"fontname" : "Arial",
					"numoutlets" : 0,
					"fontsize" : 9.0
				}

			}
, 			{
				"box" : 				{
					"maxclass" : "comment",
					"text" : "Pitch (Hz)",
					"id" : "obj-116",
					"patching_rect" : [ 135.0, 523.0, 52.0, 17.0 ],
					"numinlets" : 1,
					"fontname" : "Arial",
					"numoutlets" : 0,
					"fontsize" : 9.0
				}

			}
, 			{
				"box" : 				{
					"maxclass" : "comment",
					"text" : "Attack",
					"id" : "obj-120",
					"patching_rect" : [ 135.0, 443.0, 35.0, 17.0 ],
					"numinlets" : 1,
					"fontname" : "Arial",
					"numoutlets" : 0,
					"fontsize" : 9.0
				}

			}
, 			{
				"box" : 				{
					"maxclass" : "number",
					"id" : "obj-41",
					"patching_rect" : [ 158.0, 28.0, 50.0, 20.0 ],
					"numinlets" : 1,
					"fontname" : "Arial",
					"numoutlets" : 2,
					"outlettype" : [ "int", "bang" ],
					"fontsize" : 12.0
				}

			}
 ],
		"lines" : [ 			{
				"patchline" : 				{
					"source" : [ "obj-39", 0 ],
					"destination" : [ "obj-5", 0 ],
					"hidden" : 0,
					"midpoints" : [  ]
				}

			}
, 			{
				"patchline" : 				{
					"source" : [ "obj-32", 0 ],
					"destination" : [ "obj-40", 0 ],
					"hidden" : 0,
					"midpoints" : [  ]
				}

			}
, 			{
				"patchline" : 				{
					"source" : [ "obj-43", 1 ],
					"destination" : [ "obj-32", 1 ],
					"hidden" : 0,
					"midpoints" : [  ]
				}

			}
, 			{
				"patchline" : 				{
					"source" : [ "obj-43", 0 ],
					"destination" : [ "obj-32", 0 ],
					"hidden" : 0,
					"midpoints" : [  ]
				}

			}
, 			{
				"patchline" : 				{
					"source" : [ "obj-45", 0 ],
					"destination" : [ "obj-47", 2 ],
					"hidden" : 0,
					"midpoints" : [  ]
				}

			}
, 			{
				"patchline" : 				{
					"source" : [ "obj-46", 0 ],
					"destination" : [ "obj-45", 0 ],
					"hidden" : 0,
					"midpoints" : [  ]
				}

			}
, 			{
				"patchline" : 				{
					"source" : [ "obj-40", 0 ],
					"destination" : [ "obj-39", 0 ],
					"hidden" : 0,
					"midpoints" : [  ]
				}

			}
, 			{
				"patchline" : 				{
					"source" : [ "obj-43", 1 ],
					"destination" : [ "obj-44", 1 ],
					"hidden" : 0,
					"midpoints" : [  ]
				}

			}
, 			{
				"patchline" : 				{
					"source" : [ "obj-43", 0 ],
					"destination" : [ "obj-44", 0 ],
					"hidden" : 0,
					"midpoints" : [  ]
				}

			}
, 			{
				"patchline" : 				{
					"source" : [ "obj-44", 1 ],
					"destination" : [ "obj-47", 1 ],
					"hidden" : 0,
					"midpoints" : [  ]
				}

			}
, 			{
				"patchline" : 				{
					"source" : [ "obj-44", 0 ],
					"destination" : [ "obj-47", 0 ],
					"hidden" : 0,
					"midpoints" : [  ]
				}

			}
, 			{
				"patchline" : 				{
					"source" : [ "obj-42", 0 ],
					"destination" : [ "obj-59", 0 ],
					"hidden" : 0,
					"midpoints" : [  ]
				}

			}
, 			{
				"patchline" : 				{
					"source" : [ "obj-4", 0 ],
					"destination" : [ "obj-12", 0 ],
					"hidden" : 0,
					"midpoints" : [  ]
				}

			}
, 			{
				"patchline" : 				{
					"source" : [ "obj-25", 0 ],
					"destination" : [ "obj-4", 0 ],
					"hidden" : 0,
					"midpoints" : [  ]
				}

			}
, 			{
				"patchline" : 				{
					"source" : [ "obj-7", 0 ],
					"destination" : [ "obj-25", 0 ],
					"hidden" : 0,
					"midpoints" : [  ]
				}

			}
, 			{
				"patchline" : 				{
					"source" : [ "obj-79", 0 ],
					"destination" : [ "obj-81", 0 ],
					"hidden" : 0,
					"midpoints" : [  ]
				}

			}
, 			{
				"patchline" : 				{
					"source" : [ "obj-79", 1 ],
					"destination" : [ "obj-81", 1 ],
					"hidden" : 0,
					"midpoints" : [  ]
				}

			}
, 			{
				"patchline" : 				{
					"source" : [ "obj-77", 0 ],
					"destination" : [ "obj-79", 0 ],
					"hidden" : 0,
					"midpoints" : [  ]
				}

			}
, 			{
				"patchline" : 				{
					"source" : [ "obj-77", 1 ],
					"destination" : [ "obj-79", 1 ],
					"hidden" : 0,
					"midpoints" : [  ]
				}

			}
, 			{
				"patchline" : 				{
					"source" : [ "obj-78", 0 ],
					"destination" : [ "obj-82", 0 ],
					"hidden" : 0,
					"midpoints" : [  ]
				}

			}
, 			{
				"patchline" : 				{
					"source" : [ "obj-14", 0 ],
					"destination" : [ "obj-77", 1 ],
					"hidden" : 0,
					"midpoints" : [  ]
				}

			}
, 			{
				"patchline" : 				{
					"source" : [ "obj-34", 0 ],
					"destination" : [ "obj-77", 0 ],
					"hidden" : 0,
					"midpoints" : [  ]
				}

			}
, 			{
				"patchline" : 				{
					"source" : [ "obj-72", 0 ],
					"destination" : [ "obj-38", 0 ],
					"hidden" : 0,
					"midpoints" : [  ]
				}

			}
, 			{
				"patchline" : 				{
					"source" : [ "obj-33", 0 ],
					"destination" : [ "obj-34", 0 ],
					"hidden" : 0,
					"midpoints" : [  ]
				}

			}
, 			{
				"patchline" : 				{
					"source" : [ "obj-34", 0 ],
					"destination" : [ "obj-13", 0 ],
					"hidden" : 0,
					"midpoints" : [  ]
				}

			}
, 			{
				"patchline" : 				{
					"source" : [ "obj-33", 1 ],
					"destination" : [ "obj-14", 0 ],
					"hidden" : 0,
					"midpoints" : [  ]
				}

			}
, 			{
				"patchline" : 				{
					"source" : [ "obj-17", 1 ],
					"destination" : [ "obj-15", 0 ],
					"hidden" : 0,
					"midpoints" : [  ]
				}

			}
, 			{
				"patchline" : 				{
					"source" : [ "obj-17", 0 ],
					"destination" : [ "obj-35", 0 ],
					"hidden" : 0,
					"midpoints" : [  ]
				}

			}
, 			{
				"patchline" : 				{
					"source" : [ "obj-35", 0 ],
					"destination" : [ "obj-61", 0 ],
					"hidden" : 0,
					"midpoints" : [  ]
				}

			}
, 			{
				"patchline" : 				{
					"source" : [ "obj-36", 1 ],
					"destination" : [ "obj-18", 0 ],
					"hidden" : 0,
					"midpoints" : [  ]
				}

			}
, 			{
				"patchline" : 				{
					"source" : [ "obj-36", 0 ],
					"destination" : [ "obj-19", 0 ],
					"hidden" : 0,
					"midpoints" : [  ]
				}

			}
, 			{
				"patchline" : 				{
					"source" : [ "obj-19", 0 ],
					"destination" : [ "obj-62", 0 ],
					"hidden" : 0,
					"midpoints" : [  ]
				}

			}
, 			{
				"patchline" : 				{
					"source" : [ "obj-38", 3 ],
					"destination" : [ "obj-37", 0 ],
					"hidden" : 0,
					"midpoints" : [ 791.0, 96.0, 791.0, 96.0 ]
				}

			}
, 			{
				"patchline" : 				{
					"source" : [ "obj-37", 0 ],
					"destination" : [ "obj-22", 0 ],
					"hidden" : 0,
					"midpoints" : [  ]
				}

			}
, 			{
				"patchline" : 				{
					"source" : [ "obj-38", 5 ],
					"destination" : [ "obj-56", 0 ],
					"hidden" : 0,
					"midpoints" : [  ]
				}

			}
, 			{
				"patchline" : 				{
					"source" : [ "obj-56", 0 ],
					"destination" : [ "obj-57", 0 ],
					"hidden" : 0,
					"midpoints" : [  ]
				}

			}
, 			{
				"patchline" : 				{
					"source" : [ "obj-38", 4 ],
					"destination" : [ "obj-60", 0 ],
					"hidden" : 0,
					"midpoints" : [ 865.166687, 96.0, 865.166626, 96.0 ]
				}

			}
, 			{
				"patchline" : 				{
					"source" : [ "obj-60", 0 ],
					"destination" : [ "obj-58", 0 ],
					"hidden" : 0,
					"midpoints" : [  ]
				}

			}
, 			{
				"patchline" : 				{
					"source" : [ "obj-38", 0 ],
					"destination" : [ "obj-33", 0 ],
					"hidden" : 0,
					"midpoints" : [  ]
				}

			}
, 			{
				"patchline" : 				{
					"source" : [ "obj-38", 1 ],
					"destination" : [ "obj-17", 0 ],
					"hidden" : 0,
					"midpoints" : [ 642.666687, 96.0, 642.666687, 96.0 ]
				}

			}
, 			{
				"patchline" : 				{
					"source" : [ "obj-38", 2 ],
					"destination" : [ "obj-36", 0 ],
					"hidden" : 0,
					"midpoints" : [ 716.833313, 96.0, 716.833313, 96.0 ]
				}

			}
, 			{
				"patchline" : 				{
					"source" : [ "obj-41", 0 ],
					"destination" : [ "obj-6", 0 ],
					"hidden" : 0,
					"midpoints" : [  ]
				}

			}
, 			{
				"patchline" : 				{
					"source" : [ "obj-2", 0 ],
					"destination" : [ "obj-9", 0 ],
					"hidden" : 0,
					"midpoints" : [  ]
				}

			}
, 			{
				"patchline" : 				{
					"source" : [ "obj-9", 0 ],
					"destination" : [ "obj-107", 0 ],
					"hidden" : 0,
					"midpoints" : [  ]
				}

			}
, 			{
				"patchline" : 				{
					"source" : [ "obj-8", 0 ],
					"destination" : [ "obj-107", 0 ],
					"hidden" : 0,
					"midpoints" : [  ]
				}

			}
, 			{
				"patchline" : 				{
					"source" : [ "obj-2", 0 ],
					"destination" : [ "obj-8", 0 ],
					"hidden" : 0,
					"midpoints" : [  ]
				}

			}
, 			{
				"patchline" : 				{
					"source" : [ "obj-74", 0 ],
					"destination" : [ "obj-5", 0 ],
					"hidden" : 0,
					"midpoints" : [  ]
				}

			}
, 			{
				"patchline" : 				{
					"source" : [ "obj-5", 0 ],
					"destination" : [ "obj-59", 0 ],
					"hidden" : 0,
					"midpoints" : [  ]
				}

			}
, 			{
				"patchline" : 				{
					"source" : [ "obj-1", 0 ],
					"destination" : [ "obj-107", 0 ],
					"hidden" : 0,
					"midpoints" : [  ]
				}

			}
, 			{
				"patchline" : 				{
					"source" : [ "obj-103", 0 ],
					"destination" : [ "obj-106", 0 ],
					"hidden" : 0,
					"midpoints" : [  ]
				}

			}
, 			{
				"patchline" : 				{
					"source" : [ "obj-107", 1 ],
					"destination" : [ "obj-76", 0 ],
					"hidden" : 0,
					"midpoints" : [ 200.5, 459.0, 92.5, 459.0 ]
				}

			}
, 			{
				"patchline" : 				{
					"source" : [ "obj-76", 0 ],
					"destination" : [ "obj-75", 0 ],
					"hidden" : 0,
					"midpoints" : [  ]
				}

			}
, 			{
				"patchline" : 				{
					"source" : [ "obj-75", 0 ],
					"destination" : [ "obj-73", 0 ],
					"hidden" : 0,
					"midpoints" : [  ]
				}

			}
, 			{
				"patchline" : 				{
					"source" : [ "obj-76", 1 ],
					"destination" : [ "obj-74", 0 ],
					"hidden" : 0,
					"midpoints" : [  ]
				}

			}
, 			{
				"patchline" : 				{
					"source" : [ "obj-28", 0 ],
					"destination" : [ "obj-107", 0 ],
					"hidden" : 0,
					"midpoints" : [ 219.5, 386.0, 150.5, 386.0 ]
				}

			}
, 			{
				"patchline" : 				{
					"source" : [ "obj-30", 0 ],
					"destination" : [ "obj-107", 0 ],
					"hidden" : 0,
					"midpoints" : [ 182.5, 386.0, 150.5, 386.0 ]
				}

			}
, 			{
				"patchline" : 				{
					"source" : [ "obj-107", 0 ],
					"destination" : [ "obj-66", 0 ],
					"hidden" : 0,
					"midpoints" : [  ]
				}

			}
, 			{
				"patchline" : 				{
					"source" : [ "obj-97", 0 ],
					"destination" : [ "obj-99", 0 ],
					"hidden" : 1,
					"midpoints" : [  ]
				}

			}
, 			{
				"patchline" : 				{
					"source" : [ "obj-99", 0 ],
					"destination" : [ "obj-98", 0 ],
					"hidden" : 1,
					"midpoints" : [  ]
				}

			}
, 			{
				"patchline" : 				{
					"source" : [ "obj-29", 0 ],
					"destination" : [ "obj-30", 0 ],
					"hidden" : 1,
					"midpoints" : [  ]
				}

			}
, 			{
				"patchline" : 				{
					"source" : [ "obj-107", 3 ],
					"destination" : [ "obj-97", 0 ],
					"hidden" : 1,
					"midpoints" : [  ]
				}

			}
, 			{
				"patchline" : 				{
					"source" : [ "obj-97", 0 ],
					"destination" : [ "obj-99", 1 ],
					"hidden" : 1,
					"midpoints" : [  ]
				}

			}
, 			{
				"patchline" : 				{
					"source" : [ "obj-27", 0 ],
					"destination" : [ "obj-28", 0 ],
					"hidden" : 1,
					"midpoints" : [  ]
				}

			}
, 			{
				"patchline" : 				{
					"source" : [ "obj-107", 3 ],
					"destination" : [ "obj-93", 0 ],
					"hidden" : 0,
					"midpoints" : [  ]
				}

			}
, 			{
				"patchline" : 				{
					"source" : [ "obj-2", 0 ],
					"destination" : [ "obj-1", 0 ],
					"hidden" : 0,
					"midpoints" : [  ]
				}

			}
, 			{
				"patchline" : 				{
					"source" : [ "obj-103", 0 ],
					"destination" : [ "obj-6", 0 ],
					"hidden" : 0,
					"midpoints" : [  ]
				}

			}
, 			{
				"patchline" : 				{
					"source" : [ "obj-21", 0 ],
					"destination" : [ "obj-24", 0 ],
					"hidden" : 1,
					"midpoints" : [  ]
				}

			}
, 			{
				"patchline" : 				{
					"source" : [ "obj-20", 0 ],
					"destination" : [ "obj-24", 0 ],
					"hidden" : 1,
					"midpoints" : [  ]
				}

			}
, 			{
				"patchline" : 				{
					"source" : [ "obj-106", 0 ],
					"destination" : [ "obj-24", 0 ],
					"hidden" : 0,
					"midpoints" : [  ]
				}

			}
, 			{
				"patchline" : 				{
					"source" : [ "obj-23", 0 ],
					"destination" : [ "obj-80", 0 ],
					"hidden" : 0,
					"midpoints" : [  ]
				}

			}
, 			{
				"patchline" : 				{
					"source" : [ "obj-80", 0 ],
					"destination" : [ "obj-81", 2 ],
					"hidden" : 0,
					"midpoints" : [  ]
				}

			}
, 			{
				"patchline" : 				{
					"source" : [ "obj-6", 0 ],
					"destination" : [ "obj-107", 0 ],
					"hidden" : 0,
					"midpoints" : [  ]
				}

			}
, 			{
				"patchline" : 				{
					"source" : [ "obj-106", 0 ],
					"destination" : [ "obj-24", 1 ],
					"hidden" : 0,
					"midpoints" : [  ]
				}

			}
, 			{
				"patchline" : 				{
					"source" : [ "obj-77", 0 ],
					"destination" : [ "obj-3", 0 ],
					"hidden" : 0,
					"midpoints" : [  ]
				}

			}
, 			{
				"patchline" : 				{
					"source" : [ "obj-77", 1 ],
					"destination" : [ "obj-3", 1 ],
					"hidden" : 0,
					"midpoints" : [  ]
				}

			}
, 			{
				"patchline" : 				{
					"source" : [ "obj-3", 0 ],
					"destination" : [ "obj-78", 0 ],
					"hidden" : 0,
					"midpoints" : [  ]
				}

			}
, 			{
				"patchline" : 				{
					"source" : [ "obj-5", 0 ],
					"destination" : [ "obj-26", 0 ],
					"hidden" : 0,
					"midpoints" : [  ]
				}

			}
, 			{
				"patchline" : 				{
					"source" : [ "obj-82", 0 ],
					"destination" : [ "obj-11", 0 ],
					"hidden" : 0,
					"midpoints" : [  ]
				}

			}
, 			{
				"patchline" : 				{
					"source" : [ "obj-11", 0 ],
					"destination" : [ "obj-59", 0 ],
					"hidden" : 0,
					"midpoints" : [  ]
				}

			}
, 			{
				"patchline" : 				{
					"source" : [ "obj-74", 0 ],
					"destination" : [ "obj-16", 0 ],
					"hidden" : 0,
					"midpoints" : [  ]
				}

			}
, 			{
				"patchline" : 				{
					"source" : [ "obj-16", 0 ],
					"destination" : [ "obj-12", 0 ],
					"hidden" : 0,
					"midpoints" : [  ]
				}

			}
 ]
	}

}
